<?xml version="1.0" standalone="no"?>
<!DOCTYPE svg PUBLIC "-//W3C//DTD SVG 20010904//EN"
 "http://www.w3.org/TR/2001/REC-SVG-20010904/DTD/svg10.dtd">
<svg version="1.0" xmlns="http://www.w3.org/2000/svg"
 width="4267.000000pt" height="4267.000000pt" viewBox="0 0 4267.000000 4267.000000"
 preserveAspectRatio="xMidYMid meet">
<metadata>
Created by potrace 1.11, written by Peter Selinger 2001-2013
</metadata>
<g transform="translate(0.000000,4267.000000) scale(0.100000,-0.100000)"
fill="#000000" stroke="none">
<path d="M8759 42666 c-2 -2 -65 -7 -139 -10 -74 -4 -153 -9 -175 -11 -22 -2
-74 -6 -115 -10 -41 -3 -88 -7 -105 -9 -16 -2 -59 -7 -95 -11 -36 -3 -76 -8
-90 -10 -14 -2 -47 -7 -75 -10 -27 -3 -61 -7 -75 -10 -14 -2 -45 -7 -70 -10
-25 -3 -70 -10 -100 -15 -30 -5 -71 -12 -90 -15 -334 -55 -698 -138 -1020
-231 -162 -47 -611 -195 -664 -219 -17 -7 -69 -28 -116 -45 -215 -81 -442
-181 -725 -321 -198 -98 -377 -192 -483 -254 -74 -43 -190 -111 -204 -120
-309 -185 -679 -444 -973 -679 -93 -75 -276 -227 -301 -251 -6 -5 -39 -35 -74
-65 -151 -131 -508 -482 -655 -644 -44 -49 -101 -112 -126 -140 -38 -41 -138
-160 -288 -341 -144 -174 -496 -670 -607 -855 -12 -19 -54 -89 -94 -155 -119
-196 -235 -407 -345 -630 -103 -211 -185 -383 -185 -392 0 -2 -12 -30 -26 -61
-117 -255 -280 -712 -388 -1087 -55 -191 -160 -611 -171 -685 -2 -14 -13 -70
-24 -125 -21 -110 -22 -113 -51 -300 -25 -157 -27 -176 -35 -240 -3 -27 -8
-63 -10 -80 -2 -16 -7 -57 -10 -90 -3 -33 -8 -70 -10 -82 -2 -12 -7 -66 -10
-120 -4 -54 -9 -106 -10 -115 -2 -9 -7 -76 -12 -150 -10 -168 -11 -25319 0
-25448 4 -52 9 -126 12 -165 3 -38 7 -94 10 -122 3 -29 7 -79 11 -110 3 -32 7
-72 9 -89 2 -17 7 -57 10 -90 3 -32 8 -70 10 -84 2 -14 7 -45 10 -70 4 -25 8
-56 10 -70 3 -14 9 -54 14 -90 10 -66 45 -270 56 -325 4 -16 13 -61 20 -100 8
-38 16 -79 19 -90 2 -11 12 -54 21 -95 10 -41 21 -91 25 -110 12 -51 66 -255
90 -341 12 -41 25 -88 30 -105 4 -18 10 -36 13 -41 3 -5 8 -20 11 -34 13 -68
204 -616 256 -734 10 -22 25 -59 34 -82 16 -45 43 -105 82 -190 13 -28 24 -54
24 -56 0 -19 248 -522 322 -653 25 -43 56 -99 70 -124 14 -25 35 -63 48 -85
12 -22 63 -106 113 -188 51 -81 97 -155 102 -165 15 -25 129 -196 135 -202 3
-3 34 -48 70 -100 35 -52 69 -100 75 -107 5 -6 21 -28 35 -48 30 -43 233 -308
269 -351 14 -17 44 -53 66 -80 260 -316 525 -593 895 -939 54 -51 215 -191
295 -257 11 -9 52 -43 90 -75 39 -32 98 -78 130 -103 33 -25 66 -51 73 -58 24
-22 364 -267 472 -339 177 -118 590 -373 605 -373 2 0 28 -14 57 -31 227 -135
757 -387 1048 -498 47 -18 94 -37 105 -42 105 -46 517 -184 758 -253 134 -39
466 -124 547 -140 14 -3 34 -7 45 -10 57 -12 339 -66 400 -76 39 -6 81 -13 95
-15 59 -10 295 -43 360 -50 30 -3 71 -8 90 -10 33 -4 60 -6 210 -21 36 -3 92
-7 125 -9 33 -2 119 -7 190 -11 164 -10 25120 -11 25310 -1 77 4 165 10 195
12 269 24 354 32 410 40 14 2 66 9 115 15 50 6 97 13 105 15 8 2 42 7 75 10
32 4 62 8 65 10 3 1 28 6 55 9 28 4 57 9 65 11 8 2 32 6 53 9 21 4 71 13 110
21 40 8 88 17 107 20 19 3 64 13 100 21 36 9 75 17 87 20 11 2 77 18 145 34
67 17 132 33 142 35 208 48 874 264 1021 330 17 8 66 28 110 45 44 18 95 38
113 46 17 8 47 20 65 28 649 278 1359 691 1902 1108 28 21 63 49 79 61 50 37
292 233 328 265 18 16 96 85 173 153 191 168 549 526 740 740 198 220 645 787
645 817 0 6 4 12 8 14 9 3 175 249 269 398 269 428 545 969 732 1437 139 348
282 777 350 1050 5 21 17 65 25 98 18 69 65 268 72 305 3 14 14 66 25 115 27
121 84 459 105 615 2 19 6 51 9 70 3 19 7 58 10 85 3 28 8 66 10 85 3 19 7 62
10 95 2 33 7 92 10 130 11 118 13 155 22 305 10 190 10 25111 -1 25300 -4 80
-9 163 -11 185 -2 22 -6 78 -9 125 -4 47 -9 96 -11 110 -2 14 -7 59 -10 100
-4 41 -8 82 -10 90 -1 8 -6 44 -10 80 -4 36 -9 72 -10 80 -1 8 -6 40 -10 70
-4 30 -9 64 -11 75 -2 10 -6 37 -10 60 -5 34 -53 302 -69 389 -9 45 -33 153
-60 266 -8 35 -26 121 -26 125 0 2 -6 23 -14 45 -8 22 -14 41 -14 43 6 19
-203 700 -246 802 -7 17 -40 104 -75 195 -34 91 -66 169 -71 175 -5 5 -9 14
-9 21 0 16 -189 441 -210 474 -6 8 -15 26 -21 40 -50 116 -271 521 -402 735
-81 133 -325 506 -337 515 -3 3 -17 21 -30 40 -36 52 -222 304 -229 310 -4 3
-22 25 -41 50 -51 66 -247 302 -286 345 -11 11 -50 56 -89 100 -175 198 -459
483 -689 690 -49 44 -94 85 -100 90 -22 21 -313 261 -361 299 -188 145 -370
279 -470 346 -149 99 -269 179 -310 205 -76 49 -355 215 -360 215 -3 0 -22 11
-43 24 -79 50 -476 253 -657 336 -269 124 -614 260 -905 357 -107 36 -202 67
-210 69 -8 2 -67 19 -130 38 -94 28 -255 72 -330 91 -85 21 -327 76 -352 80
-17 3 -34 7 -37 9 -3 2 -28 7 -55 10 -27 4 -52 9 -55 11 -3 1 -24 6 -46 9 -22
3 -62 11 -90 16 -69 13 -104 19 -145 25 -19 3 -62 10 -95 15 -33 5 -82 12
-110 16 -27 4 -54 8 -60 9 -5 2 -46 6 -90 10 -44 4 -82 8 -85 10 -4 2 -44 6
-91 10 -46 3 -95 8 -109 10 -14 2 -68 7 -120 10 -52 4 -115 10 -140 13 -51 5
-25314 14 -25321 8z"/>
</g>
</svg>
